<svg width="50" height="50" viewBox="0 0 50 50" fill="none" xmlns="http://www.w3.org/2000/svg">
<path fill-rule="evenodd" clip-rule="evenodd" d="M37.8596 13.1108C38.8359 14.0871 38.8359 15.67 37.8596 16.6463L16.6464 37.8595C15.67 38.8358 14.0871 38.8358 13.1108 37.8595C12.1345 36.8832 12.1345 35.3003 13.1108 34.324L34.324 13.1108C35.3003 12.1345 36.8833 12.1345 37.8596 13.1108Z" fill="#323031"/>
<path fill-rule="evenodd" clip-rule="evenodd" d="M37.8597 37.3156C36.8834 38.2919 35.3005 38.2919 34.3241 37.3156L13.1109 16.1024C12.1346 15.1261 12.1346 13.5432 13.1109 12.5669C14.0873 11.5906 15.6702 11.5906 16.6465 12.5669L37.8597 33.7801C38.836 34.7564 38.836 36.3393 37.8597 37.3156Z" fill="#323031"/>
</svg>
